<svg xmlns="http://www.w3.org/2000/svg" viewBox="0 0 200 200" width="100%" height="100%">
  <defs>
    <!-- Define a subtle gradient for a vibrant green brush stroke -->
    <linearGradient id="brushGreen" x1="0%" y1="0%" x2="100%" y2="100%">
      <stop offset="0%" stop-color="#00e64d" />
      <stop offset="50%" stop-color="#00b33c" />
      <stop offset="100%" stop-color="#00802b" />
    </linearGradient>
  </defs>
  <!-- Hand-drawn style brush circle 'O' -->
  <path d="M 95,25 
           C 65,24 35,45 28,80 
           C 20,115 32,150 62,168 
           C 92,185 130,178 155,152 
           C 180,126 182,88 168,60 
           C 155,35 125,22 98,26
           C 82,28 75,35 82,42
           C 90,50 108,42 122,46
           C 142,52 155,75 152,100
           C 148,125 125,148 100,152
           C 75,155 52,135 48,110
           C 44,85 58,62 78,52
           C 90,46 102,48 98,38
           C 95,30 96,25 95,25 Z" 
        fill="url(#brushGreen)" />
  <!-- Additional brush detail/splatter path to simulate the rough edge texture -->
  <path d="M 85,26 C 60,32 40,50 33,75 C 29,90 31,105 38,120 C 35,100 36,80 44,63 C 52,46 70,32 88,27 C 89,26 87,25 85,26 Z" fill="#00b33c" opacity="0.6" />
  <path d="M 148,55 C 160,70 166,90 165,110 C 164,125 158,140 148,152 C 158,138 161,120 160,102 C 159,84 152,68 142,54 C 144,53 147,54 148,55 Z" fill="#00802b" opacity="0.5" />
  <path d="M 52,135 C 65,150 82,160 100,162 C 85,158 72,148 62,136 C 58,131 50,132 52,135 Z" fill="#00b33c" opacity="0.7" />
</svg>
