<svg width="615" height="615" viewBox="0 0 615 615" xmlns="http://www.w3.org/2000/svg">
  <!-- Green Checkmark (Original Size, Background Removed) -->
  <path d="M 586,33 L 580,36 L 578,38 L 573,40 L 566,45 L 563,46 L 558,50 L 555,51 L 547,57 L 544,58 L 542,60 L 541,60 L 539,62 L 538,62 L 536,64 L 529,68 L 526,71 L 525,71 L 523,73 L 516,77 L 509,83 L 505,85 L 502,88 L 501,88 L 498,91 L 497,91 L 494,94 L 493,94 L 490,97 L 489,97 L 486,100 L 485,100 L 482,103 L 481,103 L 462,119 L 461,119 L 456,124 L 455,124 L 450,129 L 449,129 L 444,134 L 443,134 L 437,140 L 436,140 L 429,147 L 428,147 L 409,165 L 408,165 L 395,178 L 394,178 L 336,236 L 336,237 L 322,251 L 322,252 L 312,262 L 312,263 L 290,287 L 290,288 L 270,311 L 270,312 L 254,331 L 254,332 L 251,335 L 251,336 L 247,340 L 247,341 L 232,360 L 230,364 L 224,371 L 222,375 L 219,378 L 219,379 L 217,381 L 213,388 L 210,391 L 210,392 L 194,415 L 193,418 L 187,426 L 186,429 L 182,434 L 178,442 L 176,444 L 174,443 L 174,441 L 165,423 L 165,421 L 161,414 L 161,412 L 146,382 L 144,380 L 142,375 L 140,373 L 139,370 L 137,368 L 137,367 L 135,365 L 135,364 L 133,362 L 129,355 L 121,346 L 121,345 L 112,336 L 111,336 L 105,331 L 97,327 L 94,327 L 93,326 L 81,326 L 80,327 L 75,327 L 74,328 L 71,328 L 70,329 L 68,329 L 67,330 L 59,332 L 49,337 L 47,339 L 44,340 L 42,342 L 41,342 L 39,344 L 32,348 L 22,357 L 21,357 L 10,368 L 9,368 L 8,370 L 6,371 L 6,372 L 4,374 L 8,375 L 26,385 L 35,393 L 36,393 L 47,404 L 47,405 L 53,411 L 53,412 L 56,415 L 58,419 L 61,422 L 64,428 L 71,438 L 73,443 L 75,445 L 79,454 L 81,456 L 90,474 L 90,476 L 96,487 L 96,489 L 104,505 L 104,507 L 107,512 L 107,514 L 111,521 L 111,523 L 114,528 L 114,530 L 116,533 L 116,535 L 118,538 L 118,540 L 121,545 L 121,547 L 123,550 L 124,555 L 128,563 L 128,565 L 131,571 L 131,573 L 132,574 L 132,576 L 133,577 L 133,579 L 134,580 L 134,582 L 135,583 L 135,585 L 136,586 L 136,588 L 137,589 L 138,593 L 149,583 L 150,583 L 169,568 L 170,568 L 176,563 L 183,559 L 186,556 L 187,556 L 189,554 L 190,554 L 192,552 L 193,552 L 195,550 L 196,550 L 198,548 L 199,548 L 201,546 L 202,546 L 204,544 L 205,544 L 207,542 L 208,542 L 210,540 L 211,540 L 213,538 L 214,538 L 216,536 L 223,532 L 238,501 L 240,499 L 246,486 L 248,484 L 256,468 L 258,466 L 260,461 L 262,459 L 267,449 L 269,447 L 273,439 L 277,434 L 281,426 L 283,424 L 286,418 L 290,413 L 291,410 L 293,408 L 293,407 L 303,393 L 304,390 L 306,388 L 308,384 L 311,381 L 311,380 L 313,378 L 313,377 L 315,375 L 315,374 L 317,372 L 317,371 L 319,369 L 323,362 L 326,359 L 330,352 L 333,349 L 333,348 L 338,342 L 340,338 L 343,335 L 345,331 L 348,328 L 348,327 L 354,320 L 356,316 L 359,313 L 359,312 L 362,309 L 362,308 L 365,305 L 365,304 L 369,300 L 369,299 L 372,296 L 372,295 L 375,292 L 375,291 L 378,288 L 378,287 L 381,284 L 381,283 L 389,274 L 389,273 L 392,270 L 392,269 L 396,265 L 396,264 L 400,260 L 400,259 L 404,255 L 404,254 L 408,250 L 408,249 L 412,245 L 412,244 L 417,239 L 417,238 L 421,234 L 421,233 L 436,216 L 436,215 L 448,202 L 448,201 L 455,194 L 455,193 L 462,186 L 462,185 L 471,176 L 471,175 L 481,165 L 481,164 L 497,148 L 497,147 L 534,110 L 535,110 L 548,97 L 549,97 L 557,89 L 558,89 L 565,82 L 566,82 L 578,71 L 579,71 L 583,67 L 584,67 L 588,63 L 589,63 L 592,60 L 593,60 L 601,53 L 596,47 L 594,43 L 591,40 L 589,36 Z" fill="#22c55e" />
</svg>
