<svg xmlns="http://www.w3.org/2000/svg" viewBox="0 0 1024 1536" width="100%" height="100%">
  <path d="M 649 1503 L 646 1504 L 645 1507 L 645 1511 L 642 1511 L 638 1512 L 639 1514 L 642 1514 L 645 1517 L 647 1518 L 646 1523 L 647 1525 L 650 1524 L 651 1522 L 650 1518 L 651 1516 L 655 1515 L 657 1514 L 658 1512 L 656 1511 L 652 1507 L 651 1505 Z M 570 1503 L 565 1504 L 564 1507 L 566 1508 L 565 1510 L 559 1512 L 558 1514 L 560 1514 L 562 1516 L 565 1517 L 564 1519 L 565 1522 L 566 1524 L 569 1524 L 571 1522 L 570 1518 L 575 1514 L 577 1512 L 575 1512 L 572 1510 L 572 1507 Z M 540 1503 L 540 1505 L 539 1509 L 537 1511 L 534 1511 L 532 1513 L 534 1514 L 536 1514 L 540 1518 L 541 1521 L 540 1524 L 544 1524 L 544 1521 L 545 1517 L 547 1515 L 549 1515 L 551 1514 L 553 1512 L 550 1512 L 546 1510 L 546 1506 L 544 1503 Z M 519 1503 L 515 1504 L 516 1506 L 514 1507 L 514 1510 L 512 1511 L 510 1511 L 508 1512 L 509 1514 L 514 1517 L 516 1521 L 516 1524 L 519 1524 L 520 1522 L 519 1520 L 521 1516 L 525 1514 L 527 1512 L 525 1512 L 521 1510 L 520 1508 Z M 346 1503 L 342 1504 L 343 1508 L 342 1510 L 338 1511 L 335 1514 L 339 1515 L 342 1519 L 343 1524 L 346 1524 L 347 1522 L 346 1518 L 348 1516 L 351 1514 L 355 1511 L 351 1511 L 349 1510 L 347 1508 Z M 953 1502 L 950 1504 L 949 1511 L 945 1511 L 943 1514 L 945 1514 L 947 1515 L 949 1517 L 951 1518 L 950 1522 L 951 1525 L 953 1524 L 954 1521 L 954 1518 L 957 1515 L 959 1515 L 962 1513 L 961 1511 L 958 1509 L 955 1506 L 955 1504 Z M 825 1502 L 822 1505 L 823 1507 L 823 1510 L 819 1511 L 817 1512 L 817 1514 L 819 1514 L 822 1516 L 824 1518 L 823 1521 L 824 1524 L 827 1525 L 829 1523 L 829 1516 L 834 1514 L 834 1511 L 830 1510 L 830 1507 L 828 1506 L 830 1505 L 828 1504 Z M 777 1502 L 774 1504 L 774 1508 L 773 1510 L 769 1511 L 766 1513 L 764 1512 L 768 1515 L 771 1515 L 772 1517 L 775 1518 L 774 1524 L 776 1525 L 779 1522 L 779 1516 L 782 1515 L 784 1513 L 786 1513 L 784 1512 L 781 1511 L 779 1510 L 778 1508 L 780 1507 L 778 1505 Z M 750 1502 L 747 1504 L 747 1507 L 746 1510 L 741 1512 L 739 1512 L 737 1514 L 743 1514 L 745 1515 L 748 1518 L 748 1524 L 751 1524 L 752 1521 L 752 1517 L 754 1515 L 757 1515 L 760 1513 L 762 1512 L 758 1512 L 754 1511 L 752 1509 L 753 1506 L 752 1504 Z M 701 1502 L 697 1503 L 697 1506 L 695 1510 L 691 1514 L 694 1514 L 697 1517 L 696 1521 L 698 1524 L 700 1525 L 702 1523 L 701 1520 L 702 1517 L 704 1515 L 706 1515 L 709 1511 L 705 1511 L 702 1508 L 703 1505 Z M 595 1502 L 592 1503 L 591 1505 L 591 1507 L 589 1511 L 586 1511 L 583 1513 L 585 1514 L 587 1514 L 591 1518 L 592 1525 L 595 1524 L 595 1521 L 596 1516 L 598 1515 L 601 1514 L 603 1514 L 605 1513 L 604 1511 L 601 1512 L 599 1511 L 596 1508 L 595 1506 Z M 493 1502 L 490 1503 L 491 1508 L 488 1508 L 486 1511 L 484 1512 L 481 1513 L 483 1515 L 484 1513 L 486 1514 L 489 1515 L 491 1517 L 491 1524 L 495 1524 L 494 1522 L 496 1516 L 498 1515 L 501 1514 L 500 1511 L 495 1510 L 496 1506 L 495 1504 Z M 468 1502 L 465 1503 L 466 1505 L 464 1508 L 464 1511 L 460 1512 L 460 1514 L 462 1514 L 465 1517 L 466 1520 L 467 1524 L 470 1524 L 471 1517 L 473 1517 L 475 1515 L 477 1512 L 475 1511 L 470 1510 L 470 1504 Z M 445 1502 L 441 1503 L 442 1505 L 441 1507 L 439 1509 L 438 1511 L 436 1512 L 434 1511 L 433 1513 L 434 1515 L 436 1514 L 441 1516 L 441 1520 L 442 1524 L 445 1524 L 445 1522 L 447 1516 L 449 1516 L 452 1514 L 454 1512 L 452 1512 L 449 1511 L 448 1509 L 446 1508 L 448 1507 L 447 1504 Z M 421 1502 L 417 1503 L 416 1505 L 416 1508 L 415 1511 L 412 1511 L 410 1512 L 410 1514 L 414 1514 L 416 1516 L 417 1518 L 417 1521 L 418 1524 L 421 1524 L 422 1521 L 423 1516 L 426 1515 L 428 1513 L 430 1512 L 428 1512 L 425 1511 L 422 1508 L 421 1505 Z M 395 1502 L 393 1503 L 392 1505 L 393 1507 L 391 1509 L 390 1511 L 388 1512 L 386 1511 L 383 1514 L 385 1514 L 390 1515 L 392 1517 L 392 1522 L 393 1524 L 396 1524 L 397 1522 L 397 1519 L 402 1515 L 405 1512 L 403 1511 L 398 1510 L 398 1508 L 399 1506 Z M 296 1503 L 292 1504 L 293 1507 L 293 1510 L 290 1511 L 288 1513 L 285 1514 L 287 1514 L 289 1515 L 291 1517 L 293 1518 L 292 1524 L 295 1525 L 296 1523 L 298 1522 L 298 1520 L 299 1517 L 299 1514 L 301 1515 L 304 1512 L 302 1512 L 299 1511 L 298 1505 Z M 271 1502 L 267 1503 L 268 1505 L 267 1507 L 266 1510 L 263 1510 L 258 1512 L 258 1514 L 264 1514 L 268 1518 L 267 1523 L 270 1525 L 272 1524 L 272 1522 L 273 1516 L 277 1514 L 279 1511 L 276 1510 L 274 1511 L 272 1509 L 272 1504 Z M 245 1502 L 241 1503 L 241 1507 L 239 1511 L 237 1512 L 235 1511 L 233 1513 L 236 1514 L 240 1516 L 240 1519 L 241 1522 L 242 1524 L 246 1523 L 246 1517 L 249 1516 L 251 1515 L 253 1513 L 255 1514 L 255 1512 L 253 1511 L 250 1512 L 248 1511 L 246 1508 L 247 1506 L 245 1504 Z M 192 1502 L 192 1505 L 190 1507 L 191 1510 L 187 1511 L 185 1513 L 186 1515 L 188 1514 L 189 1516 L 192 1518 L 191 1521 L 192 1524 L 196 1524 L 196 1518 L 197 1516 L 200 1516 L 200 1514 L 202 1514 L 205 1511 L 201 1512 L 200 1509 L 196 1508 L 195 1502 Z M 169 1502 L 166 1504 L 165 1511 L 161 1511 L 159 1514 L 161 1514 L 164 1516 L 167 1517 L 167 1524 L 171 1524 L 171 1518 L 173 1516 L 178 1515 L 179 1511 L 173 1511 L 171 1509 L 172 1507 L 171 1504 Z M 119 1502 L 116 1503 L 115 1506 L 116 1509 L 113 1511 L 109 1512 L 111 1514 L 115 1515 L 116 1517 L 117 1522 L 116 1524 L 120 1524 L 120 1520 L 122 1516 L 125 1515 L 128 1513 L 127 1511 L 123 1511 L 122 1509 L 121 1506 Z M 925 1501 L 924 1503 L 924 1506 L 923 1508 L 921 1509 L 921 1511 L 916 1512 L 914 1512 L 916 1513 L 921 1515 L 924 1518 L 924 1524 L 929 1523 L 928 1521 L 929 1518 L 930 1516 L 934 1515 L 938 1512 L 935 1511 L 933 1510 L 931 1510 L 929 1508 L 930 1506 L 928 1504 L 927 1502 Z M 903 1501 L 900 1501 L 899 1504 L 899 1508 L 897 1510 L 895 1511 L 892 1511 L 893 1514 L 899 1517 L 900 1524 L 905 1523 L 904 1520 L 905 1517 L 907 1515 L 909 1515 L 912 1513 L 908 1509 L 905 1510 L 904 1505 Z M 877 1501 L 875 1501 L 874 1503 L 874 1505 L 872 1508 L 868 1512 L 866 1511 L 865 1513 L 868 1513 L 869 1515 L 872 1515 L 875 1516 L 876 1521 L 874 1522 L 876 1524 L 879 1523 L 880 1521 L 880 1516 L 882 1515 L 884 1515 L 886 1514 L 887 1511 L 883 1511 L 879 1507 L 879 1503 Z M 801 1501 L 798 1503 L 798 1508 L 794 1512 L 792 1513 L 795 1515 L 798 1516 L 798 1524 L 803 1524 L 803 1517 L 805 1515 L 807 1514 L 809 1514 L 812 1512 L 808 1510 L 806 1510 L 804 1508 L 804 1506 L 803 1503 Z M 624 1501 L 621 1503 L 620 1507 L 621 1510 L 616 1511 L 613 1512 L 613 1514 L 615 1514 L 618 1515 L 621 1518 L 621 1521 L 620 1524 L 625 1523 L 624 1521 L 625 1518 L 627 1515 L 630 1514 L 632 1514 L 634 1512 L 631 1512 L 628 1511 L 625 1509 L 626 1503 Z M 370 1501 L 368 1502 L 367 1507 L 365 1511 L 361 1512 L 361 1514 L 364 1515 L 367 1518 L 366 1521 L 367 1523 L 371 1524 L 371 1521 L 372 1518 L 376 1514 L 378 1514 L 381 1511 L 377 1511 L 375 1509 L 372 1508 L 372 1503 Z M 319 1501 L 317 1504 L 316 1506 L 315 1511 L 313 1512 L 311 1511 L 310 1513 L 312 1515 L 314 1515 L 316 1516 L 316 1523 L 320 1525 L 321 1523 L 323 1522 L 321 1519 L 322 1517 L 328 1514 L 330 1512 L 328 1511 L 325 1511 L 323 1510 L 322 1505 Z M 219 1501 L 217 1503 L 217 1505 L 215 1510 L 213 1511 L 209 1512 L 210 1514 L 212 1515 L 216 1516 L 216 1521 L 217 1523 L 221 1524 L 221 1518 L 223 1516 L 226 1515 L 227 1511 L 225 1511 L 222 1508 L 223 1506 L 220 1503 Z M 146 1502 L 141 1504 L 140 1508 L 140 1511 L 135 1511 L 133 1513 L 135 1514 L 141 1516 L 142 1521 L 141 1524 L 146 1525 L 146 1517 L 148 1515 L 150 1514 L 152 1514 L 154 1512 L 152 1511 L 150 1511 L 149 1509 L 147 1508 L 147 1504 Z M 724 1500 L 722 1502 L 722 1505 L 720 1511 L 716 1511 L 716 1514 L 720 1515 L 722 1518 L 723 1524 L 726 1524 L 726 1520 L 728 1516 L 732 1514 L 734 1512 L 730 1511 L 727 1508 L 727 1503 Z M 673 1500 L 672 1502 L 671 1507 L 669 1511 L 667 1511 L 664 1513 L 670 1516 L 670 1524 L 675 1524 L 675 1521 L 676 1518 L 677 1516 L 679 1514 L 682 1514 L 684 1511 L 681 1512 L 679 1511 L 676 1508 L 675 1506 L 676 1502 L 674 1502 Z M 850 1499 L 848 1501 L 849 1505 L 849 1507 L 848 1509 L 846 1511 L 843 1511 L 842 1514 L 844 1513 L 845 1515 L 848 1516 L 847 1520 L 849 1520 L 849 1522 L 850 1524 L 852 1525 L 853 1520 L 855 1516 L 857 1516 L 860 1513 L 862 1512 L 863 1514 L 863 1512 L 861 1512 L 857 1511 L 854 1508 L 855 1506 L 853 1505 L 854 1502 L 852 1499 Z M 60 1513 L 64 1515 L 67 1518 L 68 1520 L 67 1523 L 69 1524 L 72 1524 L 73 1522 L 72 1519 L 74 1517 L 76 1514 L 78 1513 L 81 1512 L 83 1512 L 85 1514 L 89 1514 L 91 1516 L 92 1518 L 91 1523 L 96 1524 L 96 1518 L 99 1515 L 101 1514 L 104 1513 L 106 1513 L 104 1513 L 103 1511 L 98 1511 L 95 1502 L 92 1501 L 91 1503 L 92 1505 L 91 1508 L 89 1509 L 89 1511 L 84 1512 L 82 1512 L 77 1511 L 74 1509 L 72 1508 L 73 1506 L 72 1502 L 71 1500 L 69 1499 L 67 1502 L 67 1507 L 66 1509 L 64 1511 L 62 1511 Z M 977 1030 L 974 1040 L 967 1044 L 967 1048 L 969 1049 L 971 1048 L 974 1051 L 974 1054 L 976 1057 L 976 1063 L 973 1066 L 967 1067 L 967 1070 L 970 1074 L 973 1074 L 975 1076 L 976 1087 L 973 1091 L 967 1093 L 966 1096 L 973 1098 L 976 1103 L 976 1109 L 974 1115 L 972 1114 L 966 1118 L 969 1123 L 975 1124 L 976 1139 L 972 1140 L 970 1143 L 965 1144 L 966 1147 L 973 1148 L 975 1150 L 975 1162 L 968 1167 L 967 1170 L 972 1171 L 975 1174 L 976 1182 L 975 1186 L 972 1189 L 969 1189 L 966 1191 L 965 1193 L 967 1195 L 972 1195 L 975 1200 L 976 1211 L 967 1216 L 967 1218 L 970 1219 L 976 1224 L 976 1231 L 974 1237 L 965 1240 L 967 1242 L 971 1243 L 975 1247 L 976 1251 L 975 1255 L 976 1257 L 972 1261 L 969 1261 L 966 1263 L 967 1267 L 975 1268 L 976 1275 L 975 1281 L 965 1289 L 967 1291 L 970 1291 L 974 1293 L 976 1297 L 975 1308 L 973 1307 L 971 1310 L 967 1312 L 967 1314 L 971 1315 L 975 1319 L 976 1327 L 974 1332 L 965 1337 L 968 1340 L 971 1339 L 976 1345 L 976 1352 L 971 1357 L 968 1357 L 967 1361 L 973 1364 L 975 1367 L 977 1375 L 976 1378 L 972 1382 L 968 1383 L 966 1386 L 968 1388 L 974 1389 L 976 1394 L 975 1404 L 969 1407 L 968 1409 L 970 1411 L 972 1411 L 976 1416 L 976 1426 L 973 1430 L 970 1432 L 967 1432 L 967 1436 L 969 1437 L 972 1436 L 975 1439 L 976 1442 L 975 1447 L 976 1453 L 968 1454 L 968 1457 L 976 1465 L 975 1467 L 976 1471 L 973 1478 L 969 1480 L 966 1480 L 967 1484 L 972 1485 L 977 1491 L 975 1497 L 975 1501 L 973 1503 L 976 1504 L 974 1510 L 969 1511 L 969 1514 L 971 1514 L 976 1519 L 976 1522 L 978 1526 L 980 1524 L 979 1517 L 989 1514 L 989 1512 L 986 1511 L 982 1505 L 979 1503 L 979 1493 L 981 1491 L 979 1490 L 979 1486 L 982 1485 L 983 1483 L 985 1484 L 986 1482 L 989 1483 L 990 1480 L 988 1478 L 985 1478 L 980 1475 L 979 1469 L 980 1467 L 979 1464 L 985 1459 L 987 1460 L 989 1458 L 989 1455 L 981 1454 L 979 1450 L 980 1443 L 979 1440 L 985 1436 L 986 1434 L 987 1436 L 990 1433 L 980 1427 L 979 1416 L 983 1411 L 985 1410 L 987 1411 L 989 1409 L 986 1404 L 981 1406 L 979 1405 L 979 1396 L 982 1393 L 979 1393 L 982 1389 L 987 1388 L 990 1384 L 988 1382 L 983 1381 L 980 1378 L 979 1373 L 980 1367 L 983 1363 L 985 1362 L 986 1364 L 990 1361 L 987 1356 L 983 1358 L 980 1354 L 979 1348 L 981 1345 L 979 1344 L 981 1340 L 985 1338 L 987 1339 L 989 1338 L 988 1333 L 986 1334 L 982 1332 L 979 1325 L 980 1321 L 979 1317 L 981 1315 L 988 1313 L 987 1308 L 985 1308 L 982 1311 L 982 1307 L 979 1304 L 979 1294 L 982 1289 L 986 1289 L 988 1291 L 989 1287 L 988 1285 L 982 1283 L 980 1281 L 979 1277 L 979 1272 L 983 1268 L 986 1267 L 987 1264 L 979 1258 L 979 1253 L 981 1249 L 979 1246 L 981 1244 L 989 1241 L 988 1237 L 985 1238 L 979 1232 L 979 1224 L 984 1219 L 988 1218 L 989 1215 L 986 1212 L 983 1213 L 979 1207 L 980 1195 L 983 1194 L 985 1191 L 989 1194 L 987 1189 L 986 1191 L 979 1185 L 979 1176 L 981 1174 L 980 1171 L 986 1171 L 989 1167 L 987 1165 L 982 1167 L 982 1163 L 979 1162 L 979 1149 L 981 1147 L 985 1148 L 986 1146 L 990 1144 L 988 1141 L 986 1142 L 985 1140 L 980 1139 L 979 1128 L 984 1122 L 987 1122 L 989 1120 L 985 1116 L 984 1118 L 981 1117 L 979 1114 L 979 1108 L 981 1106 L 979 1105 L 980 1100 L 983 1097 L 987 1096 L 989 1097 L 990 1095 L 989 1093 L 984 1092 L 980 1088 L 979 1078 L 984 1072 L 991 1070 L 986 1066 L 983 1066 L 983 1064 L 981 1064 L 979 1062 L 978 1050 L 980 1048 L 982 1049 L 987 1048 L 988 1043 L 982 1043 L 978 1038 Z M 43 1028 L 41 1031 L 40 1039 L 37 1042 L 30 1045 L 30 1047 L 33 1049 L 36 1047 L 38 1048 L 40 1053 L 39 1067 L 37 1066 L 35 1069 L 30 1070 L 32 1073 L 34 1074 L 37 1073 L 40 1076 L 41 1083 L 40 1089 L 37 1092 L 35 1091 L 32 1092 L 30 1095 L 32 1097 L 35 1096 L 41 1102 L 39 1116 L 37 1116 L 35 1118 L 32 1117 L 31 1119 L 32 1122 L 38 1122 L 40 1124 L 41 1137 L 40 1139 L 32 1141 L 30 1143 L 33 1147 L 36 1145 L 40 1149 L 39 1164 L 37 1163 L 34 1166 L 32 1165 L 30 1167 L 33 1170 L 40 1172 L 41 1176 L 39 1187 L 37 1187 L 35 1190 L 32 1188 L 30 1191 L 31 1193 L 36 1193 L 41 1200 L 39 1212 L 37 1211 L 36 1214 L 34 1215 L 31 1214 L 32 1218 L 36 1220 L 40 1220 L 41 1222 L 39 1236 L 37 1236 L 35 1238 L 33 1237 L 31 1238 L 31 1241 L 38 1243 L 40 1248 L 40 1256 L 38 1260 L 31 1263 L 32 1267 L 36 1266 L 40 1268 L 41 1272 L 40 1282 L 34 1286 L 30 1286 L 31 1289 L 33 1290 L 39 1290 L 41 1296 L 39 1307 L 34 1310 L 32 1314 L 40 1316 L 41 1318 L 40 1329 L 32 1333 L 30 1336 L 32 1338 L 38 1337 L 40 1339 L 41 1345 L 40 1354 L 34 1358 L 31 1358 L 32 1362 L 40 1364 L 41 1367 L 40 1379 L 33 1381 L 31 1383 L 32 1386 L 36 1386 L 41 1390 L 39 1404 L 36 1406 L 31 1406 L 32 1410 L 36 1410 L 40 1412 L 41 1416 L 40 1425 L 35 1430 L 32 1429 L 30 1431 L 31 1433 L 38 1433 L 40 1435 L 41 1444 L 39 1452 L 37 1452 L 36 1454 L 30 1455 L 32 1459 L 36 1458 L 37 1460 L 40 1460 L 39 1475 L 36 1477 L 32 1477 L 31 1481 L 36 1481 L 37 1483 L 40 1483 L 41 1488 L 40 1490 L 41 1505 L 39 1510 L 31 1514 L 40 1516 L 42 1525 L 45 1525 L 47 1517 L 53 1513 L 55 1513 L 56 1511 L 52 1512 L 48 1508 L 48 1503 L 44 1500 L 44 1486 L 46 1484 L 52 1482 L 53 1480 L 52 1477 L 48 1476 L 44 1471 L 44 1464 L 51 1457 L 50 1453 L 44 1448 L 44 1439 L 47 1436 L 50 1436 L 52 1430 L 50 1428 L 45 1426 L 44 1422 L 44 1416 L 52 1408 L 51 1404 L 49 1405 L 45 1401 L 44 1391 L 46 1389 L 49 1389 L 53 1385 L 51 1381 L 47 1380 L 44 1377 L 44 1368 L 51 1361 L 51 1357 L 48 1356 L 44 1352 L 44 1343 L 52 1337 L 51 1333 L 45 1330 L 43 1325 L 44 1320 L 51 1312 L 51 1309 L 49 1309 L 44 1304 L 45 1293 L 47 1293 L 52 1289 L 51 1285 L 44 1279 L 44 1272 L 49 1266 L 51 1261 L 48 1261 L 44 1257 L 43 1251 L 44 1246 L 46 1244 L 51 1243 L 52 1239 L 48 1235 L 46 1235 L 44 1233 L 44 1224 L 51 1216 L 51 1213 L 49 1213 L 44 1209 L 43 1203 L 45 1198 L 52 1193 L 51 1189 L 44 1184 L 44 1176 L 51 1167 L 51 1165 L 49 1165 L 44 1160 L 44 1151 L 47 1148 L 50 1148 L 53 1145 L 51 1141 L 45 1138 L 44 1136 L 45 1128 L 51 1121 L 50 1117 L 45 1114 L 43 1109 L 44 1101 L 47 1098 L 50 1098 L 52 1096 L 52 1093 L 44 1088 L 44 1079 L 51 1071 L 50 1067 L 44 1062 L 43 1056 L 45 1052 L 45 1049 L 48 1050 L 52 1048 L 51 1043 L 49 1043 L 45 1039 L 45 1036 L 43 1034 L 42 1030 Z M 43 476 L 40 479 L 40 488 L 31 494 L 32 497 L 37 497 L 40 500 L 41 513 L 39 515 L 37 513 L 35 516 L 31 517 L 30 519 L 33 522 L 36 521 L 38 523 L 38 525 L 40 526 L 41 533 L 39 540 L 31 542 L 32 545 L 38 546 L 41 550 L 40 561 L 37 564 L 31 565 L 30 567 L 33 571 L 36 569 L 40 573 L 41 583 L 40 586 L 36 590 L 30 591 L 32 595 L 39 595 L 41 603 L 40 605 L 41 611 L 36 614 L 31 614 L 30 617 L 33 620 L 37 619 L 41 624 L 39 636 L 31 639 L 32 642 L 36 642 L 40 644 L 41 657 L 40 659 L 32 662 L 30 665 L 33 668 L 35 668 L 36 666 L 37 669 L 40 670 L 41 673 L 40 686 L 38 688 L 35 687 L 32 688 L 31 692 L 34 692 L 41 698 L 40 703 L 41 707 L 39 711 L 30 713 L 31 718 L 35 717 L 39 719 L 41 723 L 39 735 L 34 738 L 31 738 L 31 740 L 33 740 L 40 746 L 41 758 L 39 760 L 30 762 L 29 764 L 30 766 L 35 766 L 40 771 L 41 783 L 34 788 L 31 787 L 30 789 L 32 791 L 35 791 L 38 794 L 38 797 L 41 801 L 41 806 L 39 808 L 30 809 L 35 815 L 38 816 L 40 820 L 41 827 L 40 831 L 38 833 L 35 834 L 32 833 L 30 835 L 31 838 L 36 839 L 39 843 L 41 852 L 39 854 L 37 854 L 36 856 L 34 855 L 30 857 L 30 862 L 35 861 L 36 863 L 39 863 L 38 865 L 40 867 L 40 877 L 39 879 L 34 882 L 31 881 L 31 887 L 36 886 L 41 890 L 41 901 L 35 906 L 32 903 L 30 905 L 31 910 L 37 911 L 39 914 L 40 931 L 37 932 L 36 939 L 29 947 L 27 952 L 23 953 L 22 938 L 19 940 L 19 951 L 21 954 L 20 961 L 18 962 L 17 968 L 20 977 L 20 980 L 18 983 L 14 983 L 11 977 L 13 966 L 13 968 L 11 968 L 10 971 L 10 981 L 12 988 L 14 989 L 11 993 L 11 1000 L 13 1003 L 12 1005 L 21 1015 L 34 1016 L 36 1013 L 37 1016 L 33 1021 L 36 1022 L 40 1019 L 46 1011 L 47 1013 L 52 1016 L 63 1015 L 68 1009 L 71 1002 L 71 993 L 67 988 L 67 984 L 71 976 L 71 971 L 67 979 L 64 980 L 63 983 L 61 982 L 59 985 L 57 984 L 55 981 L 62 975 L 64 971 L 64 965 L 61 958 L 58 940 L 57 954 L 55 950 L 46 940 L 45 937 L 46 933 L 43 925 L 45 923 L 44 921 L 46 920 L 44 915 L 52 909 L 51 905 L 44 901 L 44 891 L 48 887 L 52 887 L 54 885 L 54 883 L 49 881 L 44 875 L 44 867 L 49 862 L 52 861 L 51 856 L 44 851 L 45 849 L 44 845 L 48 839 L 51 839 L 53 834 L 48 833 L 44 829 L 44 821 L 51 812 L 51 810 L 44 803 L 45 795 L 51 791 L 50 786 L 45 783 L 44 772 L 50 768 L 52 765 L 52 763 L 44 757 L 44 747 L 52 739 L 50 735 L 45 734 L 43 728 L 44 723 L 47 720 L 49 720 L 52 715 L 50 712 L 44 708 L 45 706 L 44 699 L 47 694 L 51 692 L 51 687 L 47 686 L 43 679 L 44 672 L 50 668 L 51 663 L 44 656 L 46 647 L 51 641 L 51 638 L 48 637 L 44 633 L 44 624 L 52 618 L 52 616 L 46 610 L 44 606 L 45 600 L 51 593 L 51 590 L 44 586 L 45 573 L 50 571 L 51 566 L 45 561 L 44 557 L 45 549 L 51 544 L 50 540 L 43 533 L 45 525 L 50 522 L 51 518 L 44 510 L 44 502 L 51 496 L 50 491 L 46 490 Z M 19 992 L 25 995 L 27 995 L 32 994 L 32 996 L 34 996 L 39 993 L 37 1005 L 36 1007 L 32 1011 L 30 1012 L 27 1013 L 23 1009 L 20 1005 L 19 1003 L 18 999 Z M 65 990 L 67 992 L 68 994 L 69 997 L 69 1001 L 68 1004 L 66 1008 L 62 1012 L 59 1013 L 54 1013 L 51 1012 L 48 1010 L 48 1007 L 50 1007 L 54 1005 L 57 1002 L 56 996 L 58 995 L 62 991 Z M 56 992 L 57 990 L 59 992 Z M 54 986 L 56 988 L 55 991 L 54 989 Z M 19 985 L 23 984 L 25 981 L 26 979 L 27 981 L 28 979 L 32 983 L 34 983 L 36 988 L 33 989 L 28 990 L 22 990 L 19 988 Z M 42 979 L 46 979 L 44 981 Z M 49 962 L 52 965 L 53 968 L 53 971 L 50 975 L 47 972 L 47 967 L 46 970 L 45 968 L 45 965 L 47 963 Z M 35 950 L 38 952 L 41 952 L 38 955 L 38 957 L 36 959 L 35 961 L 32 961 L 35 961 L 34 966 L 36 967 L 36 974 L 40 974 L 38 976 L 36 976 L 31 977 L 29 975 L 29 972 L 27 970 L 27 966 L 28 961 L 29 958 L 32 955 L 32 953 L 34 952 Z M 44 948 L 45 951 L 49 951 L 52 955 L 53 957 L 53 959 L 51 961 L 46 957 L 48 958 L 46 955 L 44 956 Z M 976 475 L 978 480 L 976 481 L 975 489 L 973 491 L 968 491 L 966 494 L 972 499 L 976 505 L 976 511 L 971 515 L 967 516 L 967 520 L 974 522 L 974 525 L 977 531 L 974 539 L 972 538 L 966 543 L 974 547 L 976 553 L 976 560 L 972 565 L 970 564 L 965 569 L 967 571 L 972 570 L 974 572 L 976 581 L 975 587 L 972 590 L 967 592 L 969 596 L 973 596 L 975 598 L 976 602 L 975 609 L 972 614 L 966 615 L 966 618 L 969 621 L 974 621 L 976 624 L 976 631 L 974 635 L 971 635 L 968 641 L 974 645 L 976 651 L 976 657 L 971 663 L 967 663 L 968 668 L 974 670 L 976 673 L 975 682 L 972 685 L 968 686 L 967 689 L 970 692 L 973 692 L 976 697 L 975 699 L 976 706 L 969 712 L 966 712 L 968 717 L 971 717 L 976 721 L 975 727 L 976 733 L 968 736 L 967 740 L 971 741 L 976 746 L 975 758 L 973 760 L 970 759 L 967 761 L 967 765 L 972 766 L 976 772 L 976 782 L 970 787 L 967 787 L 967 790 L 972 791 L 975 795 L 975 806 L 973 809 L 967 808 L 966 812 L 973 815 L 976 820 L 975 829 L 967 833 L 967 836 L 973 838 L 976 842 L 975 846 L 976 853 L 975 855 L 969 856 L 966 859 L 969 862 L 973 862 L 976 867 L 976 875 L 974 878 L 967 881 L 968 885 L 975 888 L 976 891 L 975 895 L 977 898 L 973 904 L 967 904 L 967 908 L 974 911 L 975 913 L 976 931 L 972 940 L 962 953 L 960 937 L 957 943 L 958 956 L 956 961 L 953 964 L 953 972 L 963 982 L 954 983 L 948 978 L 946 973 L 942 972 L 942 974 L 949 984 L 945 990 L 945 1002 L 950 1012 L 955 1016 L 964 1016 L 971 1010 L 973 1014 L 979 1018 L 981 1021 L 986 1020 L 982 1019 L 983 1016 L 987 1017 L 990 1015 L 993 1015 L 999 1012 L 1006 1000 L 1005 993 L 1003 990 L 1008 982 L 1006 974 L 1006 980 L 995 989 L 987 988 L 990 984 L 987 985 L 982 981 L 989 978 L 994 983 L 997 983 L 996 981 L 1002 969 L 1001 962 L 998 960 L 1000 945 L 997 939 L 996 952 L 993 954 L 993 952 L 987 946 L 984 938 L 978 929 L 979 923 L 981 922 L 979 917 L 981 914 L 980 912 L 984 909 L 989 908 L 987 903 L 980 903 L 981 898 L 979 890 L 988 884 L 988 879 L 986 880 L 981 879 L 979 874 L 980 864 L 982 862 L 990 861 L 989 857 L 981 851 L 980 845 L 981 839 L 983 839 L 984 837 L 988 837 L 989 831 L 982 831 L 979 825 L 981 814 L 985 812 L 987 813 L 989 811 L 988 808 L 986 807 L 983 808 L 980 805 L 981 792 L 983 791 L 987 792 L 990 790 L 988 786 L 984 787 L 979 782 L 980 772 L 985 765 L 989 766 L 987 759 L 983 760 L 981 758 L 980 745 L 983 744 L 989 735 L 982 735 L 980 733 L 979 720 L 989 715 L 988 711 L 980 708 L 979 697 L 985 691 L 989 690 L 989 687 L 987 685 L 984 687 L 979 680 L 980 674 L 979 670 L 981 668 L 988 666 L 989 664 L 980 659 L 979 649 L 981 647 L 981 644 L 988 641 L 989 637 L 985 637 L 982 639 L 979 633 L 980 627 L 979 621 L 983 618 L 985 620 L 986 618 L 989 618 L 988 613 L 985 614 L 981 611 L 979 605 L 979 600 L 983 595 L 985 596 L 988 594 L 987 590 L 983 591 L 979 586 L 979 575 L 982 571 L 984 572 L 985 570 L 987 571 L 989 567 L 988 565 L 986 566 L 980 561 L 979 552 L 983 547 L 988 546 L 989 544 L 988 541 L 986 540 L 983 542 L 981 540 L 981 537 L 979 535 L 979 532 L 981 530 L 979 523 L 982 520 L 989 521 L 990 516 L 988 514 L 981 514 L 980 512 L 979 502 L 981 500 L 981 496 L 986 497 L 988 496 L 988 492 L 986 491 L 983 492 L 980 490 L 981 487 L 980 481 Z M 979 991 L 983 994 L 985 991 L 987 991 L 990 993 L 993 994 L 1000 995 L 1000 1000 L 999 1004 L 998 1006 L 996 1008 L 992 1011 L 989 1012 L 983 1011 L 979 1008 Z M 952 988 L 957 992 L 958 989 L 960 988 L 961 991 L 959 993 L 959 1000 L 960 1002 L 964 1006 L 966 1006 L 969 1008 L 967 1010 L 964 1012 L 955 1012 L 951 1007 L 949 1005 L 948 1003 L 947 999 L 947 996 L 949 992 L 951 990 Z M 965 987 L 968 986 L 971 988 L 967 989 Z M 976 983 L 978 983 L 980 984 L 983 986 L 983 990 L 979 988 L 976 986 Z M 973 950 L 974 955 L 973 957 L 971 958 L 969 962 L 972 964 L 970 967 L 972 968 L 969 970 L 971 974 L 971 977 L 967 974 L 965 970 L 966 964 L 965 961 L 966 959 L 968 957 L 969 954 Z M 980 948 L 981 950 L 984 950 L 984 952 L 985 954 L 988 957 L 987 959 L 988 961 L 990 962 L 991 964 L 991 970 L 989 974 L 987 975 L 985 974 L 987 976 L 984 979 L 983 975 L 980 974 L 983 970 L 981 969 L 983 967 L 981 966 L 982 964 L 985 962 L 983 958 L 981 955 L 979 955 Z M 978 380 L 976 381 L 972 386 L 971 388 L 971 390 L 970 392 L 968 394 L 967 397 L 965 399 L 963 403 L 961 399 L 962 390 L 961 388 L 959 389 L 958 399 L 959 406 L 956 410 L 955 413 L 955 419 L 957 422 L 957 425 L 960 428 L 964 431 L 966 432 L 963 435 L 960 432 L 958 432 L 953 429 L 949 425 L 949 421 L 948 419 L 946 422 L 946 424 L 950 435 L 947 438 L 945 442 L 945 449 L 948 457 L 953 463 L 955 463 L 960 465 L 963 465 L 966 464 L 967 462 L 970 461 L 971 463 L 978 470 L 983 472 L 984 470 L 986 470 L 989 468 L 989 466 L 984 469 L 981 465 L 983 465 L 981 463 L 982 460 L 985 464 L 991 464 L 997 461 L 1004 454 L 1007 452 L 1007 441 L 1004 438 L 1002 435 L 1008 429 L 1007 420 L 1006 422 L 1006 426 L 1004 430 L 1000 431 L 1000 429 L 998 431 L 998 434 L 996 436 L 994 436 L 989 439 L 986 439 L 985 441 L 984 439 L 986 441 L 989 443 L 995 442 L 999 443 L 999 452 L 995 455 L 993 458 L 995 459 L 991 461 L 987 461 L 982 456 L 982 454 L 978 451 L 979 444 L 977 440 L 978 438 L 981 437 L 982 432 L 984 432 L 984 434 L 986 434 L 988 431 L 991 431 L 996 426 L 999 421 L 998 419 L 1000 417 L 1000 410 L 999 408 L 999 405 L 1000 398 L 1000 387 L 997 388 L 996 394 L 996 401 L 994 403 L 992 399 L 990 397 L 989 394 L 985 389 L 982 388 L 982 385 L 980 384 L 980 382 Z M 978 455 L 979 457 L 978 460 L 976 458 Z M 956 437 L 958 438 L 960 442 L 961 440 L 961 448 L 962 452 L 964 455 L 969 456 L 966 459 L 962 461 L 960 461 L 956 460 L 952 456 L 949 452 L 948 450 L 948 444 L 949 442 L 952 440 L 953 438 Z M 985 422 L 986 424 L 983 426 L 982 428 L 978 427 L 981 424 L 983 424 Z M 981 420 L 979 423 L 977 421 Z M 985 419 L 984 421 L 979 423 L 981 421 L 982 418 Z M 969 414 L 970 416 L 972 416 L 973 418 L 976 419 L 976 423 L 974 425 L 973 423 L 970 425 L 968 422 L 969 420 L 967 423 L 965 420 L 965 418 Z M 974 399 L 975 404 L 976 406 L 973 408 L 971 410 L 969 411 L 965 410 L 968 407 L 969 404 Z M 982 397 L 984 400 L 987 402 L 989 408 L 989 410 L 990 415 L 992 418 L 990 419 L 990 421 L 988 423 L 986 419 L 983 416 L 984 411 L 983 407 L 980 406 L 979 402 L 981 399 Z M 392 34 L 390 34 L 389 41 L 387 43 L 383 43 L 381 44 L 380 46 L 383 46 L 385 48 L 387 47 L 388 51 L 388 54 L 389 56 L 391 56 L 393 54 L 394 48 L 397 48 L 400 46 L 399 43 L 397 42 L 395 42 L 393 40 L 393 38 Z M 923 34 L 919 34 L 919 39 L 916 42 L 914 43 L 910 43 L 911 46 L 913 47 L 915 47 L 919 51 L 919 56 L 921 56 L 923 54 L 923 49 L 925 47 L 927 47 L 929 45 L 931 45 L 931 43 L 928 43 L 926 42 L 924 40 L 924 37 Z M 772 33 L 770 36 L 770 40 L 767 43 L 764 44 L 766 47 L 768 47 L 771 50 L 770 53 L 771 55 L 773 56 L 775 55 L 776 52 L 775 48 L 780 47 L 782 45 L 782 43 L 779 43 L 777 42 L 775 40 L 776 37 L 775 35 Z M 712 45 L 718 47 L 721 50 L 721 54 L 722 56 L 725 56 L 725 49 L 727 47 L 732 47 L 734 45 L 737 47 L 741 46 L 743 48 L 746 49 L 746 54 L 750 55 L 750 50 L 756 47 L 759 45 L 757 43 L 755 43 L 753 41 L 752 39 L 751 35 L 750 33 L 748 33 L 746 35 L 746 41 L 744 43 L 741 42 L 739 44 L 736 43 L 734 45 L 733 43 L 731 42 L 729 42 L 726 39 L 725 33 L 721 34 L 719 36 L 719 41 L 716 43 L 715 45 L 714 43 Z M 648 33 L 646 35 L 646 40 L 643 43 L 640 43 L 639 45 L 641 47 L 643 47 L 645 48 L 646 54 L 647 56 L 650 56 L 651 48 L 653 48 L 657 46 L 657 42 L 651 41 L 652 38 L 650 37 L 651 35 L 650 33 Z M 367 33 L 365 35 L 366 38 L 364 42 L 362 42 L 359 44 L 356 45 L 358 46 L 360 46 L 362 47 L 365 50 L 364 54 L 365 56 L 368 56 L 369 52 L 369 50 L 370 48 L 375 46 L 378 46 L 378 43 L 372 42 L 370 38 L 371 35 Z M 255 46 L 261 46 L 266 51 L 266 55 L 269 56 L 271 54 L 270 50 L 272 48 L 279 45 L 284 45 L 286 47 L 288 47 L 290 48 L 292 50 L 290 53 L 292 57 L 294 56 L 295 53 L 295 50 L 297 48 L 300 47 L 302 45 L 309 45 L 311 46 L 314 47 L 316 49 L 315 51 L 315 53 L 317 56 L 319 56 L 320 49 L 322 47 L 328 47 L 330 46 L 334 45 L 336 47 L 338 47 L 340 48 L 340 54 L 341 56 L 343 56 L 345 54 L 345 48 L 347 47 L 349 47 L 351 45 L 354 45 L 352 43 L 349 42 L 346 42 L 345 40 L 345 35 L 343 33 L 340 36 L 339 39 L 341 41 L 339 43 L 336 43 L 332 45 L 330 43 L 328 44 L 325 43 L 320 38 L 321 35 L 316 34 L 316 37 L 314 39 L 316 41 L 310 43 L 308 46 L 303 45 L 301 43 L 299 43 L 297 42 L 295 40 L 296 35 L 292 33 L 290 37 L 291 40 L 289 42 L 286 42 L 284 43 L 282 45 L 279 45 L 276 42 L 274 42 L 272 41 L 270 34 L 268 33 L 267 35 L 266 38 L 264 42 L 262 42 L 259 44 L 256 43 Z M 244 33 L 242 33 L 239 35 L 240 37 L 240 40 L 237 43 L 234 43 L 232 45 L 238 47 L 241 50 L 240 54 L 242 56 L 245 55 L 245 49 L 247 47 L 253 46 L 252 43 L 250 43 L 247 41 L 246 39 L 246 34 Z M 57 45 L 59 46 L 62 46 L 66 48 L 66 53 L 67 55 L 69 57 L 71 55 L 71 50 L 74 47 L 76 47 L 78 45 L 81 46 L 83 45 L 87 46 L 90 47 L 91 51 L 91 53 L 92 57 L 95 56 L 96 54 L 95 52 L 97 51 L 95 50 L 98 47 L 101 46 L 104 47 L 109 46 L 111 47 L 113 47 L 115 48 L 115 53 L 116 56 L 119 56 L 121 54 L 122 48 L 125 47 L 128 45 L 128 43 L 125 43 L 123 42 L 121 40 L 121 35 L 119 33 L 116 35 L 117 37 L 115 39 L 115 42 L 113 42 L 109 44 L 106 45 L 104 44 L 101 43 L 99 42 L 97 40 L 96 37 L 97 35 L 95 33 L 93 33 L 92 38 L 90 39 L 92 41 L 86 43 L 84 44 L 81 44 L 79 43 L 77 43 L 74 41 L 71 40 L 72 37 L 71 35 L 68 33 L 66 36 L 65 38 L 67 40 L 65 41 L 58 43 Z M 897 32 L 895 33 L 894 36 L 895 38 L 893 39 L 891 43 L 888 44 L 886 45 L 888 46 L 891 47 L 894 50 L 895 52 L 895 56 L 897 56 L 899 55 L 899 48 L 901 48 L 905 47 L 907 45 L 909 45 L 908 43 L 905 43 L 904 41 L 902 42 L 900 40 L 901 38 L 898 37 L 899 34 Z M 874 32 L 871 33 L 871 38 L 870 40 L 867 43 L 863 45 L 865 47 L 867 47 L 870 50 L 870 56 L 875 55 L 875 49 L 877 47 L 883 45 L 883 43 L 878 43 L 876 41 L 875 37 L 876 35 Z M 813 46 L 816 47 L 818 47 L 821 50 L 819 51 L 820 53 L 821 56 L 824 55 L 824 50 L 826 47 L 831 46 L 832 44 L 838 45 L 842 47 L 844 49 L 844 54 L 845 56 L 850 55 L 849 51 L 853 47 L 856 46 L 858 46 L 858 43 L 856 43 L 853 42 L 851 40 L 851 36 L 850 33 L 848 32 L 846 34 L 845 37 L 847 38 L 845 39 L 843 42 L 839 44 L 836 45 L 833 45 L 832 43 L 827 43 L 825 42 L 825 38 L 824 34 L 822 32 L 820 33 L 817 37 L 817 39 L 819 43 L 816 43 Z M 709 46 L 707 44 L 701 41 L 701 39 L 702 35 L 700 33 L 696 33 L 696 38 L 694 42 L 691 42 L 688 43 L 686 46 L 685 43 L 682 42 L 678 42 L 677 35 L 673 33 L 671 36 L 671 41 L 669 43 L 665 43 L 663 45 L 660 45 L 663 45 L 665 47 L 668 47 L 672 51 L 671 55 L 674 57 L 676 55 L 677 51 L 676 49 L 678 47 L 681 47 L 685 45 L 689 46 L 693 46 L 695 48 L 697 51 L 697 54 L 698 57 L 700 56 L 701 49 L 703 47 L 707 45 Z M 624 32 L 622 36 L 622 38 L 620 42 L 618 43 L 615 44 L 613 45 L 617 47 L 619 47 L 621 53 L 621 55 L 622 57 L 625 56 L 627 53 L 625 51 L 629 47 L 631 46 L 637 45 L 634 44 L 629 43 L 626 42 L 629 40 L 629 38 L 626 37 L 627 35 L 626 33 Z M 131 45 L 133 45 L 136 46 L 138 47 L 140 49 L 142 50 L 141 54 L 144 56 L 146 55 L 147 48 L 151 46 L 158 45 L 161 47 L 164 48 L 166 50 L 166 53 L 167 56 L 170 55 L 170 50 L 173 47 L 177 46 L 179 46 L 181 45 L 179 46 L 178 43 L 174 43 L 172 42 L 170 37 L 171 35 L 167 33 L 165 35 L 165 38 L 166 40 L 164 42 L 160 43 L 154 43 L 149 41 L 148 38 L 146 34 L 144 32 L 141 35 L 140 38 L 141 40 L 139 42 L 137 42 L 135 44 Z M 975 31 L 973 32 L 972 34 L 972 37 L 970 41 L 968 43 L 963 44 L 962 46 L 960 43 L 956 43 L 954 41 L 951 41 L 950 37 L 947 33 L 945 34 L 944 41 L 941 43 L 938 43 L 935 45 L 944 48 L 946 56 L 949 56 L 949 50 L 952 47 L 954 46 L 958 46 L 959 44 L 961 46 L 965 46 L 967 48 L 970 49 L 973 53 L 973 61 L 972 65 L 966 69 L 971 73 L 973 82 L 973 86 L 971 88 L 968 89 L 963 89 L 963 93 L 965 95 L 968 95 L 972 97 L 973 106 L 972 108 L 968 111 L 968 113 L 966 112 L 965 114 L 963 114 L 962 116 L 966 119 L 969 118 L 970 120 L 972 121 L 973 128 L 972 134 L 968 137 L 965 137 L 963 138 L 963 141 L 965 143 L 968 143 L 972 147 L 973 151 L 972 159 L 969 162 L 965 162 L 963 164 L 963 166 L 967 168 L 970 168 L 972 170 L 973 173 L 973 181 L 972 183 L 970 184 L 969 186 L 963 187 L 963 190 L 965 192 L 969 192 L 971 194 L 972 196 L 972 203 L 973 205 L 973 207 L 971 209 L 969 210 L 965 210 L 963 212 L 963 214 L 965 216 L 972 218 L 973 222 L 972 230 L 968 235 L 963 236 L 963 238 L 966 240 L 968 240 L 972 244 L 973 249 L 973 253 L 972 255 L 969 258 L 964 260 L 964 263 L 966 265 L 972 266 L 973 275 L 971 280 L 969 281 L 965 281 L 963 283 L 963 285 L 965 287 L 967 287 L 972 291 L 973 301 L 971 305 L 968 307 L 964 308 L 963 311 L 965 313 L 970 313 L 972 315 L 973 322 L 972 327 L 970 331 L 965 331 L 963 334 L 963 336 L 969 337 L 972 340 L 973 352 L 970 355 L 965 355 L 962 359 L 966 361 L 972 362 L 972 370 L 974 374 L 975 379 L 977 368 L 976 363 L 978 361 L 985 359 L 985 356 L 983 354 L 981 355 L 976 351 L 976 341 L 979 337 L 982 337 L 985 333 L 977 331 L 976 328 L 977 325 L 976 322 L 977 319 L 977 313 L 980 313 L 982 311 L 984 311 L 986 308 L 983 305 L 981 306 L 978 304 L 976 300 L 976 293 L 977 290 L 980 287 L 984 285 L 984 281 L 982 280 L 979 280 L 977 278 L 976 271 L 977 268 L 975 267 L 984 263 L 983 258 L 980 258 L 976 255 L 975 246 L 979 240 L 983 239 L 983 235 L 977 234 L 976 232 L 977 228 L 976 220 L 980 216 L 984 215 L 985 212 L 982 209 L 980 210 L 977 208 L 975 203 L 977 195 L 980 192 L 985 190 L 983 186 L 979 187 L 976 184 L 976 171 L 979 168 L 981 167 L 984 167 L 986 165 L 983 161 L 980 162 L 976 158 L 976 148 L 977 145 L 979 143 L 983 142 L 984 136 L 980 137 L 977 134 L 976 122 L 978 119 L 984 118 L 986 115 L 986 111 L 979 112 L 975 106 L 977 97 L 979 95 L 985 94 L 985 90 L 984 88 L 979 88 L 977 86 L 976 75 L 979 72 L 985 71 L 985 67 L 980 66 L 977 63 L 976 60 L 976 51 L 978 48 L 980 47 L 984 48 L 986 45 L 977 38 Z M 797 31 L 797 33 L 794 36 L 795 41 L 793 42 L 790 44 L 788 44 L 786 45 L 789 45 L 792 46 L 796 54 L 796 56 L 800 56 L 801 54 L 801 48 L 803 47 L 806 46 L 810 45 L 810 43 L 807 43 L 802 41 L 801 38 L 801 35 L 799 34 Z M 184 44 L 185 47 L 188 47 L 191 50 L 191 53 L 194 55 L 196 55 L 195 50 L 198 47 L 201 46 L 204 44 L 205 46 L 208 46 L 212 47 L 215 49 L 217 51 L 215 52 L 215 54 L 217 55 L 217 57 L 220 56 L 221 54 L 219 50 L 222 47 L 224 46 L 227 43 L 223 43 L 220 40 L 220 36 L 222 35 L 219 34 L 216 34 L 215 36 L 215 40 L 213 42 L 211 43 L 208 43 L 206 46 L 204 43 L 200 43 L 198 42 L 197 38 L 195 37 L 196 35 L 192 31 L 191 33 L 191 38 L 189 39 L 187 43 Z M 44 30 L 42 30 L 40 32 L 40 38 L 35 43 L 31 43 L 31 45 L 33 47 L 35 47 L 36 49 L 38 49 L 40 51 L 41 59 L 40 63 L 35 67 L 31 67 L 30 69 L 32 71 L 37 71 L 40 74 L 39 88 L 35 90 L 31 90 L 30 93 L 39 95 L 40 110 L 34 114 L 32 113 L 31 117 L 35 117 L 39 119 L 41 126 L 40 128 L 41 130 L 39 136 L 34 136 L 33 138 L 31 138 L 32 142 L 35 142 L 40 147 L 40 159 L 36 162 L 31 162 L 30 165 L 32 168 L 34 167 L 37 168 L 40 171 L 39 184 L 36 187 L 35 185 L 31 186 L 30 189 L 40 195 L 41 197 L 39 208 L 36 210 L 31 211 L 31 215 L 36 215 L 41 219 L 40 231 L 36 235 L 31 237 L 31 239 L 33 240 L 35 238 L 38 238 L 40 240 L 41 251 L 39 258 L 37 260 L 31 260 L 30 263 L 32 265 L 38 266 L 40 269 L 39 281 L 38 283 L 31 287 L 33 289 L 37 289 L 39 291 L 41 296 L 41 303 L 34 308 L 31 308 L 30 311 L 32 313 L 36 313 L 40 318 L 40 327 L 37 330 L 36 333 L 32 332 L 30 335 L 32 337 L 38 337 L 41 340 L 40 345 L 41 348 L 40 352 L 35 356 L 31 356 L 30 359 L 32 361 L 37 360 L 41 363 L 41 380 L 34 388 L 33 392 L 24 405 L 23 394 L 19 389 L 20 394 L 19 407 L 20 411 L 18 415 L 18 418 L 20 420 L 22 426 L 24 426 L 25 428 L 29 427 L 32 430 L 31 433 L 34 434 L 34 431 L 37 434 L 35 436 L 33 436 L 30 438 L 25 438 L 21 431 L 23 431 L 21 431 L 14 426 L 11 419 L 11 426 L 12 429 L 14 430 L 14 436 L 11 440 L 11 447 L 17 458 L 24 464 L 28 465 L 34 464 L 37 465 L 31 467 L 31 469 L 33 471 L 36 471 L 40 468 L 44 462 L 48 462 L 52 464 L 58 465 L 63 464 L 68 458 L 72 448 L 71 442 L 66 433 L 69 430 L 72 421 L 70 419 L 69 425 L 64 431 L 60 432 L 57 429 L 58 426 L 61 425 L 61 423 L 65 416 L 65 414 L 62 410 L 61 404 L 61 390 L 58 388 L 57 402 L 48 392 L 48 388 L 46 384 L 44 383 L 44 380 L 42 379 L 42 376 L 44 372 L 44 365 L 47 362 L 50 362 L 54 359 L 53 357 L 49 355 L 44 350 L 44 341 L 48 337 L 51 336 L 51 332 L 48 331 L 47 328 L 44 325 L 44 317 L 49 312 L 53 311 L 54 309 L 53 307 L 47 306 L 44 303 L 44 294 L 51 286 L 50 282 L 45 279 L 44 269 L 47 264 L 53 263 L 53 260 L 51 258 L 47 257 L 44 253 L 45 244 L 51 239 L 51 235 L 44 230 L 44 221 L 48 215 L 51 216 L 53 215 L 54 211 L 49 210 L 44 206 L 44 197 L 50 192 L 51 187 L 44 182 L 44 172 L 48 167 L 53 168 L 53 162 L 45 159 L 44 148 L 48 144 L 54 141 L 54 139 L 50 136 L 48 136 L 44 131 L 44 122 L 50 117 L 52 119 L 54 117 L 53 113 L 44 107 L 44 101 L 53 94 L 54 91 L 52 89 L 50 89 L 49 87 L 46 88 L 44 86 L 45 74 L 48 71 L 54 70 L 54 67 L 52 65 L 49 65 L 44 59 L 44 53 L 49 47 L 53 46 L 54 43 L 46 41 L 47 39 Z M 36 439 L 38 442 L 38 446 L 36 451 L 37 455 L 37 457 L 34 460 L 32 461 L 28 461 L 26 460 L 22 456 L 19 452 L 19 447 L 17 444 L 19 440 L 23 441 L 28 443 L 33 443 L 35 441 Z M 65 438 L 67 440 L 68 442 L 68 449 L 67 453 L 65 457 L 62 460 L 60 461 L 53 461 L 50 459 L 49 457 L 50 455 L 52 454 L 54 452 L 56 451 L 58 449 L 58 447 L 60 445 L 61 443 L 61 441 L 63 438 Z M 53 437 L 56 438 L 57 441 L 55 442 L 54 444 L 53 441 L 51 439 Z M 43 437 L 44 434 L 47 434 L 49 436 L 45 436 Z M 47 420 L 47 423 L 49 425 L 46 427 L 46 425 L 45 421 Z M 39 420 L 41 424 L 39 425 L 38 427 L 35 428 L 33 426 L 32 424 L 38 423 Z M 38 398 L 39 400 L 41 401 L 40 404 L 39 406 L 35 410 L 33 410 L 35 411 L 35 413 L 36 415 L 38 416 L 38 418 L 34 422 L 32 422 L 28 423 L 27 420 L 28 418 L 30 417 L 29 414 L 30 408 L 31 406 L 36 400 Z M 44 397 L 46 398 L 47 401 L 50 404 L 52 408 L 52 410 L 53 412 L 54 417 L 54 419 L 52 420 L 50 423 L 50 420 L 51 417 L 47 413 L 47 411 L 45 408 L 47 408 L 44 401 L 41 398 Z M 556.64 33.74 L 556.64 34.55 L 555.83 38.58 L 555.63 39.38 L 554.83 43.41 L 554.63 44.22 L 554.22 45.43 L 552.21 55.30 L 556.44 55.30 L 556.44 54.90 L 559.06 42.21 L 559.46 41.00 L 559.66 41.40 L 559.86 42.00 L 560.27 42.61 L 560.27 43.01 L 560.67 43.62 L 560.67 44.02 L 561.07 44.62 L 561.07 45.03 L 561.27 45.63 L 561.68 46.23 L 561.68 46.64 L 562.08 47.24 L 562.08 47.64 L 562.48 48.25 L 562.48 48.65 L 562.88 49.26 L 562.88 49.66 L 563.29 50.26 L 563.29 50.67 L 563.69 51.27 L 563.69 51.67 L 564.09 52.28 L 564.09 52.68 L 564.50 53.28 L 564.50 53.69 L 564.90 54.29 L 564.90 54.69 L 565.10 55.10 L 569.53 55.30 L 569.53 54.49 L 569.73 53.69 L 571.55 44.82 L 571.95 43.62 L 572.15 42.81 L 572.96 38.78 L 573.16 37.97 L 573.76 34.95 L 573.96 33.74 L 569.73 33.74 L 569.73 34.35 L 569.13 37.37 L 568.93 38.18 L 567.72 44.22 L 567.52 45.03 L 567.12 47.04 L 566.71 47.85 L 566.51 47.44 L 566.31 46.84 L 565.91 46.23 L 565.91 45.83 L 565.50 45.23 L 565.50 44.82 L 565.10 44.22 L 565.10 43.82 L 564.70 43.21 L 564.70 42.81 L 564.29 42.21 L 564.29 41.80 L 563.89 41.20 L 563.89 40.79 L 563.49 40.19 L 563.49 39.79 L 563.09 39.18 L 563.09 38.78 L 562.68 38.18 L 562.68 37.77 L 562.28 37.17 L 562.28 36.77 L 561.88 36.16 L 561.88 35.76 L 561.47 35.15 L 561.47 34.75 L 561.27 34.35 L 561.07 33.74 Z M 545.96 33.74 L 540.73 33.95 L 540.12 35.36 L 539.72 35.76 L 539.32 36.77 L 538.91 37.17 L 538.31 38.58 L 537.91 38.98 L 537.50 39.99 L 537.10 40.39 L 536.50 41.80 L 536.09 42.21 L 535.69 43.21 L 535.29 43.62 L 534.68 45.03 L 534.28 45.43 L 533.88 46.44 L 533.47 46.84 L 532.87 48.25 L 532.47 48.65 L 532.06 49.66 L 531.66 50.06 L 531.06 51.47 L 530.65 51.87 L 530.05 53.28 L 529.65 53.69 L 529.24 54.69 L 528.84 55.30 L 533.68 55.10 L 534.68 52.88 L 535.09 52.48 L 535.89 50.67 L 544.55 50.67 L 544.76 51.47 L 544.96 52.88 L 544.96 53.89 L 545.16 55.30 L 549.39 55.30 L 549.39 54.29 L 549.19 52.88 L 548.38 48.05 L 548.18 46.64 L 547.37 41.80 L 547.17 40.39 L 546.37 35.56 L 546.17 34.15 Z M 532.06 33.74 L 514.94 33.74 L 514.94 34.15 L 514.74 35.15 L 514.34 36.36 L 514.34 37.17 L 520.38 37.77 L 520.38 38.58 L 519.98 40.59 L 519.78 41.40 L 518.97 45.43 L 518.57 46.44 L 516.76 55.30 L 521.39 55.30 L 521.39 54.49 L 521.99 51.47 L 522.19 50.67 L 523.00 46.64 L 523.20 45.83 L 524.21 40.79 L 524.41 39.99 L 524.81 37.97 L 525.22 37.17 L 531.26 37.17 L 531.46 36.77 L 531.46 36.16 L 531.86 34.95 Z M 486.14 33.74 L 486.14 34.55 L 485.33 38.58 L 485.13 39.38 L 484.32 43.41 L 484.12 44.22 L 483.72 45.43 L 481.71 55.30 L 485.94 55.30 L 485.94 54.90 L 488.55 42.21 L 488.96 41.00 L 489.16 41.40 L 489.36 42.00 L 489.76 42.61 L 489.76 43.01 L 490.17 43.62 L 490.17 44.02 L 490.57 44.62 L 490.57 45.03 L 490.77 45.63 L 491.17 46.23 L 491.17 46.64 L 491.58 47.24 L 491.58 47.64 L 491.98 48.25 L 491.98 48.65 L 492.38 49.26 L 492.38 49.66 L 492.78 50.26 L 492.78 50.67 L 493.19 51.27 L 493.19 51.67 L 493.59 52.28 L 493.59 52.68 L 493.99 53.28 L 493.99 53.69 L 494.40 54.29 L 494.40 54.69 L 494.60 55.10 L 499.03 55.30 L 499.03 54.49 L 499.23 53.69 L 501.04 44.82 L 501.45 43.62 L 501.65 42.81 L 502.45 38.78 L 502.65 37.97 L 503.26 34.95 L 503.46 33.74 L 499.23 33.74 L 499.23 34.35 L 498.63 37.37 L 498.42 38.18 L 497.22 44.22 L 497.01 45.03 L 496.61 47.04 L 496.21 47.85 L 496.01 47.44 L 495.81 46.84 L 495.40 46.23 L 495.40 45.83 L 495.00 45.23 L 495.00 44.82 L 494.60 44.22 L 494.60 43.82 L 494.19 43.21 L 494.19 42.81 L 493.79 42.21 L 493.79 41.80 L 493.39 41.20 L 493.39 40.79 L 492.99 40.19 L 492.99 39.79 L 492.58 39.18 L 492.58 38.78 L 492.18 38.18 L 492.18 37.77 L 491.78 37.17 L 491.78 36.77 L 491.37 36.16 L 491.37 35.76 L 490.97 35.15 L 490.97 34.75 L 490.77 34.35 L 490.57 33.74 Z M 475.46 33.74 L 470.22 33.95 L 469.62 35.36 L 469.22 35.76 L 468.81 36.77 L 468.41 37.17 L 467.81 38.58 L 467.40 38.98 L 467.00 39.99 L 466.60 40.39 L 465.99 41.80 L 465.59 42.21 L 465.19 43.21 L 464.78 43.62 L 464.18 45.03 L 463.78 45.43 L 463.37 46.44 L 462.97 46.84 L 462.37 48.25 L 461.96 48.65 L 461.56 49.66 L 461.16 50.06 L 460.55 51.47 L 460.15 51.87 L 459.55 53.28 L 459.14 53.69 L 458.74 54.69 L 458.34 55.30 L 463.17 55.10 L 464.18 52.88 L 464.58 52.48 L 465.39 50.67 L 474.05 50.67 L 474.25 51.47 L 474.45 52.88 L 474.45 53.89 L 474.65 55.30 L 478.88 55.30 L 478.88 54.29 L 478.68 52.88 L 477.88 48.05 L 477.68 46.64 L 476.87 41.80 L 476.67 40.39 L 475.86 35.56 L 475.66 34.15 Z M 461.56 33.74 L 444.44 33.74 L 444.44 34.15 L 444.24 35.15 L 443.83 36.36 L 443.83 37.17 L 449.88 37.77 L 449.88 38.58 L 449.47 40.59 L 449.27 41.40 L 448.47 45.43 L 448.06 46.44 L 446.25 55.30 L 450.88 55.30 L 450.88 54.49 L 451.49 51.47 L 451.69 50.67 L 452.50 46.64 L 452.70 45.83 L 453.71 40.79 L 453.91 39.99 L 454.31 37.97 L 454.71 37.17 L 460.76 37.17 L 460.96 36.77 L 460.96 36.16 L 461.36 34.95 Z M 537.91 31.73 L 541.73 31.73 L 542.94 30.32 L 543.95 29.31 L 544.96 31.13 L 545.16 31.73 L 548.18 31.73 L 547.98 31.33 L 547.78 30.72 L 547.37 30.12 L 547.37 29.72 L 546.97 29.11 L 546.97 28.71 L 546.57 28.10 L 546.37 27.50 L 542.14 27.50 Z M 467.40 31.73 L 471.23 31.73 L 472.44 30.32 L 473.45 29.31 L 474.45 31.13 L 474.65 31.73 L 477.68 31.73 L 477.47 31.33 L 477.27 30.72 L 476.87 30.12 L 476.87 29.72 L 476.47 29.11 L 476.47 28.71 L 476.06 28.10 L 475.86 27.50 L 471.63 27.50 Z" fill="#000000" fill-rule="evenodd" />
</svg>
