<svg xmlns="http://www.w3.org/2000/svg" viewBox="0 0 64 64" fill="none">
  <path d="M28 52V28c0-2.2 1.8-4 4-4s4 1.8 4 4v10" stroke="#E74C3C" stroke-width="3.5" stroke-linecap="round" stroke-linejoin="round"/>
  <path d="M36 38V22c0-2.2 1.8-4 4-4s4 1.8 4 4v18" stroke="#E74C3C" stroke-width="3.5" stroke-linecap="round" stroke-linejoin="round"/>
  <path d="M44 36V26c0-2.2 1.8-4 4-4s4 1.8 4 4v16c0 8-6 14-14 14H30c-6 0-12-4-14-10l-6-16c-1-2.5 1-5 3.7-5 1.3 0 2.5.7 3.2 1.8L22 34" stroke="#E74C3C" stroke-width="3.5" stroke-linecap="round" stroke-linejoin="round"/>
  <path d="M20 34V18c0-2.2 1.8-4 4-4s4 1.8 4 4v16" stroke="#E74C3C" stroke-width="3.5" stroke-linecap="round" stroke-linejoin="round"/>
</svg>
